<svg xmlns="http://www.w3.org/2000/svg" width="25.871" height="59.791" viewBox="0 0 25.871 59.791">
  <g id="bone_care" transform="translate(-1045.114 -752)">
    <path id="Path_5517" data-name="Path 5517" d="M54.224,148.875c.724,5.211-.434,9.735-4.5,13.327-3.907,3.449-4.359,6.835-2.58,12.279a4.144,4.144,0,0,0,4.049,2.889,4.256,4.256,0,0,0,4.218-2.9c.462-1.218.809-2.48,1.283-3.692a2.446,2.446,0,0,1,4.773.085c.492,1.333.889,2.7,1.411,4.023a4.409,4.409,0,0,0,7.745.325c1.634-3.678,2.181-7.408-.292-11-.838-1.217-1.717-2.412-2.659-3.548a20.547,20.547,0,0,1-4.476-10.3c-.176-1.171-.374-2.343-.646-3.493a2.4,2.4,0,0,0-2.32-2.094c-2.708-.065-5.42-.08-8.128,0a1.929,1.929,0,0,0-2.033,2.36c.444,2.96,1.4,5.817,1.91,8.822C53.637,153.848,53.584,151.255,54.224,148.875Z" transform="translate(998.967 607.278)" fill="#024594" fill-rule="evenodd"/>
    <path id="Path_5518" data-name="Path 5518" d="M65.628,220.063c-1.362,1.533-1.46,3.262-2.221,5.17a9.558,9.558,0,0,1,.564-5.327,13.48,13.48,0,0,1,3.57-4.8,13.3,13.3,0,0,0,4.08-8.09c.278-1.979-.612-3.112-2.268-2.925a7.133,7.133,0,0,1-6.107-2.131,4.533,4.533,0,0,0-5.525-.024,6.9,6.9,0,0,1-6.095,2.138c-1.389-.2-1.955.564-2.118,1.781a7.752,7.752,0,0,0,.358,3.334,19.154,19.154,0,0,0,2.782,5.335,13.128,13.128,0,0,1,2.557,8.335,33.5,33.5,0,0,0,.238,4.256,1.965,1.965,0,0,0,2.051,2.016q3,.073,6.01.008a1.971,1.971,0,0,0,2.1-1.989C65.7,224.912,65.628,222.67,65.628,220.063Z" transform="translate(997.517 582.621)" fill="#024594" fill-rule="evenodd"/>
  </g>
</svg>
