<svg xmlns="http://www.w3.org/2000/svg" width="30.324" height="40.344" viewBox="0 0 30.324 40.344">
  <g id="cancer_care" transform="translate(-405.5 -746.657)">
    <path id="Path_5520" data-name="Path 5520" d="M67.855,65.916l-5.539,8.4L70.6,86.249a1.509,1.509,0,0,0,2.353.146l5.247-5.81a1.507,1.507,0,0,0,.06-1.951Z" transform="translate(357.235 700.109)" fill="#024594" fill-rule="evenodd"/>
    <path id="Path_5521" data-name="Path 5521" d="M62.533,50.411c-.12-1.795-.662-8.283-2.328-12.061a1.394,1.394,0,0,0-.437-.552,9.063,9.063,0,0,0-11.071,0,1.376,1.376,0,0,0-.438.552c-1.661,3.783-2.2,10.271-2.328,12.061a1.393,1.393,0,0,0,.23.86L47.919,53.9l5.039-6.612-1.9-2.683a.921.921,0,0,1,.511-1.422,12.127,12.127,0,0,1,5.268-.018.921.921,0,0,1,.5,1.459l-2.945,3.792L38.642,68.7a1.374,1.374,0,0,0,.055,1.786l4.8,5.314a1.379,1.379,0,0,0,2.154-.133l16.662-24.4a1.374,1.374,0,0,0,.225-.856Z" transform="translate(367.161 710.746)" fill="#024594" fill-rule="evenodd"/>
  </g>
</svg>
