<svg xmlns="http://www.w3.org/2000/svg" width="37.977" height="41.556" viewBox="0 0 37.977 41.556"><defs><style>.a{fill:#024594;fill-rule:evenodd;}</style></defs><path class="a" d="M305.75,188.187a10.273,10.273,0,0,0-6.387-6.681,14.23,14.23,0,0,0-11.843,1.6,14.232,14.232,0,0,0-11.844-1.6,10.272,10.272,0,0,0-6.388,6.685,15.244,15.244,0,0,0,2.019,13.435,21.107,21.107,0,0,1,3.483,8.846c.026.178.05.359.074.544a30.7,30.7,0,0,0,1.831,7.74c.954,2.267,2.186,3.491,3.661,3.638,1.563.156,2.861-1.144,3.858-3.864a31.918,31.918,0,0,0,1.547-7.177,7.756,7.756,0,0,1,1.138-3.568.763.763,0,0,1,1.242,0,7.744,7.744,0,0,1,1.137,3.568,31.971,31.971,0,0,0,1.548,7.177c.943,2.575,2.156,3.877,3.608,3.877a2.113,2.113,0,0,0,.25-.013c1.474-.147,2.706-1.371,3.661-3.638a30.788,30.788,0,0,0,1.831-7.74c.023-.178.046-.353.07-.524a21.175,21.175,0,0,1,3.493-8.874,15.246,15.246,0,0,0,2.011-13.431Zm-1.941,5.585a.547.547,0,0,1-.132.016.558.558,0,0,1-.543-.428c-1.551-6.407-6.99-7.1-7.045-7.1a.56.56,0,0,1,.126-1.113,10.022,10.022,0,0,1,8.006,7.949A.56.56,0,0,1,303.809,193.772Z" transform="translate(-268.531 -180.851)"/></svg>