<svg xmlns="http://www.w3.org/2000/svg" width="48.689" height="50.399" viewBox="0 0 48.689 50.399">
  <g id="Dermatology" transform="translate(-2278.13 -7828.316)">
    <path id="Path_5445" data-name="Path 5445" d="M132.758,172.035a.813.813,0,0,0-.207.12c-4.193,3.491-8.11,7.759-10.37,12.9a40.752,40.752,0,0,0-2.528,8.612c-.679,3.476-1.131,7.02-1.822,10.423-.406,2-1.233,3.913-1.654,5.912-.679,3.216,1.421,6,4.4,6.048a4.6,4.6,0,0,0,4.756-5.743,54.049,54.049,0,0,1-1.533-16.64,31.788,31.788,0,0,1,.487-3.351,28.2,28.2,0,0,1,.942-3.49c1.731-5.128,4.785-9.733,7.876-14.145a.853.853,0,0,0,.1-.214.341.341,0,0,0-.452-.432Z" transform="translate(2181.648 7656.308)" fill="#024594" fill-rule="evenodd"/>
    <path id="Path_5446" data-name="Path 5446" d="M141.787,193.487h-9.02a20.642,20.642,0,0,0-3.844.09,3.863,3.863,0,0,0-2.261,1.219c-1.933,2.2-.637,5.548.131,7.963a47.464,47.464,0,0,1,1.823,6.417c.579,3.422-.373,7.177-3.532,8.951a9.175,9.175,0,0,1-7.7.452,7.487,7.487,0,0,1-4.536-4.78c-.042-.141-.08-.282-.115-.424a8.9,8.9,0,0,1-.251-1.982,12.608,12.608,0,0,1,.794-4.169c.784-2.21,1.783-4.342,2.625-6.534a7.6,7.6,0,0,0,.549-2.778,5.65,5.65,0,0,0-.192-1.606,3.813,3.813,0,0,0-2.982-2.821H99.865a3.4,3.4,0,0,0-3.383,3.407v23.782a1.727,1.727,0,0,0,1.722,1.733H143.45a1.726,1.726,0,0,0,1.721-1.733V196.892a3.4,3.4,0,0,0-3.384-3.4Zm-37.465,13.14a2.04,2.04,0,1,1,2.026-2.04A2.04,2.04,0,0,1,104.322,206.627Zm5.214-7.862a2.026,2.026,0,1,1,2.025,2.04,2.026,2.026,0,0,1-2.025-2.04ZM132.9,208.778a2.04,2.04,0,1,1,2.026-2.039,2.04,2.04,0,0,1-2.026,2.039Zm6.676,11.293a2.04,2.04,0,1,1,2.026-2.039,2.04,2.04,0,0,1-2.026,2.039Z" transform="translate(2181.648 7656.308)" fill="#024594" fill-rule="evenodd"/>
  </g>
</svg>
