<svg xmlns="http://www.w3.org/2000/svg" width="51.706" height="51.668" viewBox="0 0 51.706 51.668">
  <g id="Gatroenterology_LiverCare" transform="translate(-0.962 -1)">
    <path id="Path_5451" data-name="Path 5451" d="M25.67,31.49c-1.236,2.067-3.549,4.178-12.49,6.167A30.02,30.02,0,0,0,4.43,41.24c5.8,1.528,16.849,2.55,24.217-8.458A11.011,11.011,0,0,1,25.67,31.49Z" transform="translate(0.427 3.758)" fill="#024594"/>
    <path id="Path_5452" data-name="Path 5452" d="M24.716,31.693c1.393-2.831,4.774-2.033,7.065-3.763,2.977-2.246,1.752-9.828.865-13.254a17.982,17.982,0,0,0-6.739-2.246C13.854,10.441,2.824,19.686,1.33,32.109L1,34.771c0,6.054-.359,7.11,1.123,7.953C12.607,35.456,21.222,38.635,24.716,31.693Z" transform="translate(0 1.375)" fill="#024594"/>
    <path id="Path_5453" data-name="Path 5453" d="M48.653,16.214a64.747,64.747,0,0,1-16.388-.944c3.493,16.388-5.5,14.928-7.8,16.377,3.965,2.415,8.851,1.09,12.951-.955C42.88,27.963,47.6,21.56,49.192,19.213,50.012,18.033,50.069,16.214,48.653,16.214Z" transform="translate(2.897 1.759)" fill="#024594"/>
    <path id="Path_5454" data-name="Path 5454" d="M29.585,36.62l-2.246-1.382a24.506,24.506,0,0,1-3.089,3.437c4.931,2.853,4.212,1.853,4.212,10.3h4.493c0-7.436-.124-7.616.359-8.57l4.718-9.435a23.875,23.875,0,0,1-6.47,2.1Z" transform="translate(2.869 3.693)" fill="#024594"/>
    <path id="Path_5455" data-name="Path 5455" d="M26.493,12.232V1H22V11.367a26.917,26.917,0,0,1,4.493.865Z" transform="translate(2.592)" fill="#024594"/>
  </g>
</svg>
