<svg xmlns="http://www.w3.org/2000/svg" width="40.666" height="37.033" viewBox="0 0 40.666 37.033">
  <path id="heart_care" d="M34.376,444.708c2.269,0,4.322-.025,6.374.009,1.355.022,1.557-.065,2.043-1.3q1-2.552,1.994-5.108c.041-.105.1-.2.217-.45.649,2.628,1.258,5.105,1.871,7.581.463,1.87.893,3.748,1.426,5.6a1.419,1.419,0,0,0,.937.876,1.4,1.4,0,0,0,1.083-.657c1.054-1.931,2.04-3.9,3.009-5.877a.99.99,0,0,1,1.053-.679c1.932.043,3.866.023,5.8.012.787,0,1.159-.345,1.184-1.023a.935.935,0,0,0-.973-1.063c-2.454-.018-4.908-.032-7.36.015a1.288,1.288,0,0,0-.9.6c-.823,1.455-1.576,2.95-2.434,4.584-.367-1.43-.7-2.706-1.02-3.986q-1.2-4.811-2.388-9.624c-.137-.555-.4-.956-1.031-.989s-.927.332-1.134.871c-1.012,2.629-2.048,5.248-3.051,7.88a.8.8,0,0,1-.9.637c-2.056-.035-4.113.006-6.17-.017a.866.866,0,0,1-.676-.354c-1.509-3.826-1.945-7.687.026-11.481a10.552,10.552,0,0,1,8.061-5.694,12.762,12.762,0,0,1,10.659,3.2c.076.064.151.128.229.188.017.014.046.013-.035-.007a33.27,33.27,0,0,1,3.572-2.223c4.642-2.151,9.1-1.858,13.129,1.451a10.177,10.177,0,0,1,3.673,7.3c.4,4.673-1.4,8.669-3.944,12.4-3.485,5.109-8.1,9.083-13.045,12.7-.62.452-1.245.9-1.879,1.331a2.2,2.2,0,0,1-2.643.078c-5.584-3.84-10.776-8.112-14.766-13.674C35.694,446.853,35.109,445.85,34.376,444.708Z" transform="translate(-32.033 -424.85)" fill="#024594" fill-rule="evenodd"/>
</svg>
