<svg xmlns="http://www.w3.org/2000/svg" width="27.052" height="42.536" viewBox="0 0 27.052 42.536">
  <g id="kidney_care" transform="translate(-736.255 -1012.463)">
    <path id="Path_5525" data-name="Path 5525" d="M458.656,179.173a9.428,9.428,0,0,1,2.709-10.067c6.22-3.014,5.831-8.313,4.76-11.049-.876-2.225-3.657-6.481-9.577-4.421a20.2,20.2,0,0,0-10.971,9.155c-2.684,4.561-6.025,20.265,2.684,27.735,2.555,2.2,10.477,4.812,13.753-1.077C463.384,185.792,459.256,180.928,458.656,179.173Z" transform="translate(293.612 859.375)" fill="#024594" fill-rule="evenodd"/>
    <path id="Path_5526" data-name="Path 5526" d="M471.906,183.483h-2.871a8.024,8.024,0,0,0-.568,3.448h3.406a3.394,3.394,0,0,1,3.276,3.509v15.4h3.219V190.406A6.707,6.707,0,0,0,471.906,183.483Z" transform="translate(284.936 849.159)" fill="#024594" fill-rule="evenodd"/>
  </g>
</svg>
