<svg xmlns="http://www.w3.org/2000/svg" width="285" height="41.251" viewBox="0 0 285 41.251">
  <g id="Logo" transform="translate(-16.07 -23.254)">
    <path id="Path_1821" data-name="Path 1821" d="M291.482,80.786V69.291h9.042v1.323h-7.613v3.369h4.607v1.322h-4.607v4.158h8.083v1.322h-9.512m-12.8,0V69.291h6.6a3.846,3.846,0,0,1,2.641.85,2.975,2.975,0,0,1,.956,2.346,3.2,3.2,0,0,1-2.722,3.245l2.871,5.054h-1.578l-2.876-5.033h-4.46v5.033h-1.428Zm1.428-6.376h5.076a2.437,2.437,0,0,0,1.638-.48,1.736,1.736,0,0,0,.558-1.4,1.794,1.794,0,0,0-.558-1.407,2.238,2.238,0,0,0-1.567-.5h-5.146Zm-8.253,6.376V70.614h-4.842V69.291h11.112v1.323h-4.842V80.786Zm-15.074,0V69.291h.75L265,77.883V69.291h1.428V80.786H265.7L258.214,72.2v8.591Zm-11.641,0V69.291h9.043v1.323h-7.613v3.369h4.606v1.322h-4.606v4.158h8.083v1.322h-9.512Zm-3.71-3.668,1.152.853a5.669,5.669,0,0,1-2.168,2.306,6.048,6.048,0,0,1-3.124.808,5.752,5.752,0,0,1-4.265-1.7,6.391,6.391,0,0,1,0-8.643,5.753,5.753,0,0,1,4.258-1.7,6.086,6.086,0,0,1,2.907.7,5.637,5.637,0,0,1,2.133,1.991l-1.2.853a3.923,3.923,0,0,0-1.56-1.614,4.525,4.525,0,0,0-2.279-.583,4.25,4.25,0,0,0-3.205,1.329,5.071,5.071,0,0,0,0,6.711,4.256,4.256,0,0,0,3.205,1.322,4.386,4.386,0,0,0,2.4-.668A5.094,5.094,0,0,0,241.435,77.119Zm-29.412,3.668V69.291h1.449v4.543h6.782V69.291h1.428V80.786h-1.428v-5.63h-6.782v5.63Zm-3.711-3.668,1.152.853a5.67,5.67,0,0,1-2.168,2.306,6.046,6.046,0,0,1-3.124.808,5.751,5.751,0,0,1-4.265-1.7,6.39,6.39,0,0,1,0-8.643,5.755,5.755,0,0,1,4.258-1.7,6.088,6.088,0,0,1,2.908.7,5.641,5.641,0,0,1,2.133,1.991l-1.2.853a3.919,3.919,0,0,0-1.56-1.614,4.523,4.523,0,0,0-2.278-.583,4.251,4.251,0,0,0-3.206,1.329,5.073,5.073,0,0,0,0,6.711,4.256,4.256,0,0,0,3.206,1.322,4.389,4.389,0,0,0,2.4-.668A5.063,5.063,0,0,0,208.311,77.119Zm-21.969,3.668V69.291h6.6a3.849,3.849,0,0,1,2.641.85,2.977,2.977,0,0,1,.956,2.346,3.2,3.2,0,0,1-2.723,3.245l2.871,5.054h-1.578l-2.875-5.033h-4.461v5.033h-1.428Zm1.428-6.376h5.076a2.439,2.439,0,0,0,1.639-.48,1.738,1.738,0,0,0,.558-1.4,1.8,1.8,0,0,0-.558-1.407,2.241,2.241,0,0,0-1.568-.5h-5.146v3.8Zm-15.628,6.376,5.633-11.495h1.187l5.7,11.495h-1.554l-1.56-3.093H175.2l-1.522,3.093Zm3.706-4.436h5.061l-2.541-5.09Zm-13.62,4.436V69.291h9.042v1.323H163.66v3.369h4.606v1.322H163.66v4.158h8.082v1.322H162.23ZM148.4,79.055l.832-1.233a9.917,9.917,0,0,0,2.537,1.443,7.351,7.351,0,0,0,2.609.5,4.507,4.507,0,0,0,2.588-.676,2.031,2.031,0,0,0,1-1.738,1.671,1.671,0,0,0-.715-1.386,3.729,3.729,0,0,0-1.973-.651c-.2-.022-.494-.043-.874-.061a12.96,12.96,0,0,1-3.867-.668,3.044,3.044,0,0,1-1.219-1,2.377,2.377,0,0,1-.416-1.372,2.719,2.719,0,0,1,1.24-2.286,5.359,5.359,0,0,1,3.217-.9,8.791,8.791,0,0,1,2.84.473,9.721,9.721,0,0,1,2.662,1.4l-.832,1.194a8.026,8.026,0,0,0-2.236-1.294,6.935,6.935,0,0,0-2.41-.433,4.134,4.134,0,0,0-2.147.508,1.473,1.473,0,0,0-.842,1.269,1.161,1.161,0,0,0,.134.551,1.562,1.562,0,0,0,.416.473,6.456,6.456,0,0,0,3.064.675c.722.043,1.283.086,1.678.135a4.816,4.816,0,0,1,2.773,1.124,2.962,2.962,0,0,1,1.02,2.278,3.171,3.171,0,0,1-1.4,2.652,6.025,6.025,0,0,1-3.675,1.041,9.961,9.961,0,0,1-3.192-.5A9.523,9.523,0,0,1,148.4,79.055Zm-10.546,1.731V69.291H146.9v1.323h-7.614v3.369h4.606v1.322h-4.606v4.158h8.082v1.322h-9.511Zm-12.8,0V69.291h6.6a3.846,3.846,0,0,1,2.641.85,2.975,2.975,0,0,1,.956,2.346,3.2,3.2,0,0,1-2.723,3.245l2.872,5.054H133.82l-2.875-5.033h-4.461v5.033h-1.428Zm1.428-6.376h5.076a2.44,2.44,0,0,0,1.639-.48,1.738,1.738,0,0,0,.558-1.4,1.8,1.8,0,0,0-.558-1.407,2.24,2.24,0,0,0-1.567-.5h-5.147Zm-19.129,6.376V69.291h1.428V79.464h7.507v1.322Zm-14.264,0,5.633-11.495h1.187l5.7,11.495h-1.553l-1.56-3.093H96.144l-1.521,3.093ZM96.8,76.351h5.061l-2.541-5.09Zm-5.691.768,1.152.853a5.669,5.669,0,0,1-2.168,2.306,6.048,6.048,0,0,1-3.124.808,5.752,5.752,0,0,1-4.265-1.7,6.39,6.39,0,0,1,0-8.643,5.754,5.754,0,0,1,4.258-1.7,6.09,6.09,0,0,1,2.908.7A5.636,5.636,0,0,1,92,71.723l-1.2.853a3.915,3.915,0,0,0-1.56-1.614,4.523,4.523,0,0,0-2.278-.583,4.251,4.251,0,0,0-3.206,1.329,5.071,5.071,0,0,0,0,6.711,4.255,4.255,0,0,0,3.206,1.322,4.387,4.387,0,0,0,2.4-.668A5.094,5.094,0,0,0,91.108,77.119ZM77.033,80.786V69.228h1.45V80.786ZM68.467,69.291a6.018,6.018,0,0,1,4.372,1.6,5.549,5.549,0,0,1,1.66,4.176,5.489,5.489,0,0,1-1.632,4.155,6.1,6.1,0,0,1-4.4,1.56h-4.93v-11.5Zm0,1.323h-3.5v8.85h3.5a4.576,4.576,0,0,0,3.341-1.191,4.831,4.831,0,0,0-.021-6.441A4.523,4.523,0,0,0,68.467,70.614ZM51.9,80.786V69.291h9.042v1.323H53.325v3.369h4.606v1.322H53.325v4.158h8.083v1.322H51.9Zm-15.308,0V69.291h1.322L42.56,76.33l4.67-7.038h1.3V80.786H47.124V71.812l-4.564,6.8L38,71.812v8.974ZM27.01,77.079a7.273,7.273,0,0,1-.523.643,6.727,6.727,0,0,1-.614.6L27.927,80.7H26.093l-1.284-1.447a9,9,0,0,1-2.221,1.408,5.721,5.721,0,0,1-2.232.444,4.582,4.582,0,0,1-3.117-1.02A3.425,3.425,0,0,1,16.07,77.37a3.757,3.757,0,0,1,.842-2.41,7.565,7.565,0,0,1,2.609-1.933l-3.153-3.736h7.546l.793,1.259h-5.4l5.627,6.632c.3-.3.53-.54.7-.722a7.227,7.227,0,0,0,.459-.558ZM23.956,78.2l-3.54-4.155a5.788,5.788,0,0,0-2.125,1.421,2.728,2.728,0,0,0-.708,1.838,2.266,2.266,0,0,0,.76,1.773,2.857,2.857,0,0,0,1.987.683,4.647,4.647,0,0,0,1.841-.391A6.572,6.572,0,0,0,23.956,78.2Z" transform="translate(0 -16.6)" fill="#024594"/>
    <path id="Path_1822" data-name="Path 1822" d="M164.035,30.486l1.265,3.531c.063.19.16.461.282.808q1.262,3.615,2.837,3.738l-.456,1.344H161.7l.444-1.344a2.165,2.165,0,0,0,1.1-.3.869.869,0,0,0,.351-.748,2.885,2.885,0,0,0-.072-.55,9.186,9.186,0,0,0-.262-.888l-.558-1.67h-5.192l-.334.964a7.227,7.227,0,0,0-.292.939,3.691,3.691,0,0,0-.093.761,1.24,1.24,0,0,0,.546,1.15,4.005,4.005,0,0,0,1.945.334l-.482,1.357h-6.215l.456-1.357Q154.1,38.39,155.2,35.5l.127-.347,2.676-7c.287-.8.549-1.535.778-2.224s.444-1.357.634-2.012c.381-.055.76-.123,1.15-.2s.787-.161,1.193-.258q.564,1.923,1.137,3.67t1.142,3.349m-1.86,2.342-2-6.042-2.131,6.042Zm-9.222-9.082-.456,1.37h-.224a.975.975,0,0,0-.981.626,11.856,11.856,0,0,0-.266,3.336v6.951q0,5.124-1.171,6.909a7.2,7.2,0,0,1-4.152,2.676V44.5a4.049,4.049,0,0,0,2.126-2.029,15.4,15.4,0,0,0,.609-5.4V27.581c0-1.107-.164-1.789-.5-2.042a3.791,3.791,0,0,0-2.038-.423l.448-1.37h6.6Zm-15.784,0-.456,1.37h-.436a2,2,0,0,0-1.687.588,6.3,6.3,0,0,0-.439,3.044v4.11q0,3.3.786,4.423a2.986,2.986,0,0,0,2.634,1.129,4.1,4.1,0,0,0,1.548-.279,3.024,3.024,0,0,0,1.167-.811,2.925,2.925,0,0,0,.676-1.268,12.314,12.314,0,0,0,.19-2.634v-5.1q0-2.169-.486-2.651a2.931,2.931,0,0,0-1.9-.546l.474-1.37h5.59l-.461,1.37a1.084,1.084,0,0,0-1.053.6,8.675,8.675,0,0,0-.287,2.9v4a16.828,16.828,0,0,1-.308,3.86,4.9,4.9,0,0,1-1.04,1.992,4.491,4.491,0,0,1-1.882,1.277,7.733,7.733,0,0,1-2.689.432,6.933,6.933,0,0,1-2.516-.432,4.766,4.766,0,0,1-1.844-1.251,4.29,4.29,0,0,1-.934-1.713,14.973,14.973,0,0,1-.279-3.535v-4a8.182,8.182,0,0,0-.4-3.315,1.886,1.886,0,0,0-1.476-.825l.457-1.37ZM116.748,36.3c0,.245,0,.5.013.761s.021.562.038.909c.643.131,1.226.228,1.746.292a11.386,11.386,0,0,0,1.374.093,4.716,4.716,0,0,0,3.9-1.721,7.665,7.665,0,0,0,1.374-4.892,7.025,7.025,0,0,0-1.556-4.752,5.1,5.1,0,0,0-4.054-1.8,3.4,3.4,0,0,0-2.237.545q-.6.546-.6,2.626V36.3Zm-4.038,2.258h.1a1.119,1.119,0,0,0,1.082-.541,5.372,5.372,0,0,0,.292-2.2V29.256a8.2,8.2,0,0,0-.427-3.421,1.907,1.907,0,0,0-1.678-.744l.482-1.345c.207,0,.431,0,.677,0s.584.008,1.023.008c.757,0,1.785-.025,3.07-.072s2.195-.068,2.714-.068a7.9,7.9,0,0,1,5.886,2.156,8.007,8.007,0,0,1,2.131,5.886,9.888,9.888,0,0,1-.562,3.285,8.164,8.164,0,0,1-1.518,2.71,6.572,6.572,0,0,1-2.554,1.844,10.243,10.243,0,0,1-3.678.558q-.71,0-2.626-.089t-3.137-.089c-.4,0-.727,0-.989.009s-.516.008-.757.017ZM98.385,35.217c.013,1.484.215,2.414.6,2.787a3.965,3.965,0,0,0,2.567.558h.212l-.482,1.344h-6.7l.456-1.344h.212a1.124,1.124,0,0,0,1.142-.723,12.765,12.765,0,0,0,.3-3.615V30.27a13.133,13.133,0,0,0-.414-4.355,1.663,1.663,0,0,0-1.645-.824H94.5l.457-1.345H98.42q2.321,3.33,4.55,6.3t4.346,5.573l-.122-7.137q-.038-2.277-.647-2.837a4.415,4.415,0,0,0-2.731-.558l.507-1.345h6.672l-.457,1.345h-.127a1.194,1.194,0,0,0-1.2.689,10.161,10.161,0,0,0-.317,3.3v6.926q0,1.586.017,2.321c.013.49.034.943.059,1.353l-1.6.63q-2.353-3.419-4.63-6.466T98.31,28.165Zm-5.171-11.47-.461,1.37h-.309a.929.929,0,0,0-.926.613,10.36,10.36,0,0,0-.262,3.044v5.784a7.465,7.465,0,0,0,.435,3.218,1.87,1.87,0,0,0,1.671.787l-.482,1.344H86.712l.486-1.344h.1a1.119,1.119,0,0,0,1.082-.541,5.351,5.351,0,0,0,.292-2.2V29.255a8.121,8.121,0,0,0-.423-3.416,1.906,1.906,0,0,0-1.657-.723l.456-1.37h6.169Zm-16.8,0-.47,1.37a2.606,2.606,0,0,0-1.653.6A3.933,3.933,0,0,0,73.879,28v2.24H80.8V27.877q0-1.922-.486-2.321a3.661,3.661,0,0,0-2.05-.44l.474-1.37h6.608l-.482,1.37H84.58a.929.929,0,0,0-.926.613,10.3,10.3,0,0,0-.263,3.04v5.788a7.476,7.476,0,0,0,.436,3.218,1.869,1.869,0,0,0,1.67.787l-.482,1.344H78.254l.461-1.344a2.714,2.714,0,0,0,1.662-.575,2.4,2.4,0,0,0,.427-1.632V31.991H73.879v3.78c0,1.289.164,2.076.495,2.355a3.38,3.38,0,0,0,2.029.436l-.469,1.344h-6.6l.486-1.344h.1A1.119,1.119,0,0,0,71,38.021a5.362,5.362,0,0,0,.292-2.2v-6.57a8.112,8.112,0,0,0-.423-3.413,1.905,1.905,0,0,0-1.657-.723l.456-1.37h6.749ZM57.542,40.211c-.025-.232-.047-.457-.059-.672s-.017-.414-.017-.6a2.7,2.7,0,0,1,.524-1.89,2.4,2.4,0,0,1,1.776-.546.624.624,0,0,1,.571.275,1.743,1.743,0,0,1,.173.892,2.084,2.084,0,0,1-.524,1.615A6.3,6.3,0,0,1,57.542,40.211ZM43.716,36.3q0,.368.013.761c.008.258.021.562.038.909.642.131,1.226.228,1.746.292a11.386,11.386,0,0,0,1.374.093,4.715,4.715,0,0,0,3.9-1.721,7.668,7.668,0,0,0,1.374-4.892,7.025,7.025,0,0,0-1.556-4.752,5.1,5.1,0,0,0-4.054-1.8,3.4,3.4,0,0,0-2.237.545q-.6.546-.6,2.626V36.3Zm-4.038,2.258h.1a1.119,1.119,0,0,0,1.082-.541,5.371,5.371,0,0,0,.292-2.2V29.256a8.2,8.2,0,0,0-.427-3.421,1.907,1.907,0,0,0-1.678-.744l.481-1.345c.208,0,.432,0,.677,0s.584.008,1.023.008c.757,0,1.784-.025,3.07-.072s2.194-.068,2.715-.068A7.9,7.9,0,0,1,52.9,25.776a8.007,8.007,0,0,1,2.131,5.886,9.889,9.889,0,0,1-.562,3.285,8.175,8.175,0,0,1-1.518,2.71A6.567,6.567,0,0,1,50.4,39.5a10.245,10.245,0,0,1-3.678.558q-.71,0-2.626-.089t-3.137-.089c-.4,0-.728,0-.99.009s-.516.008-.757.017Zm-12.3,1.649c-.025-.232-.047-.457-.059-.672s-.017-.414-.017-.6a2.7,2.7,0,0,1,.525-1.89,2.4,2.4,0,0,1,1.776-.546.624.624,0,0,1,.571.275,1.743,1.743,0,0,1,.173.892,2.082,2.082,0,0,1-.525,1.615A6.29,6.29,0,0,1,27.379,40.211ZM20.833,28.439v3.049c.432.051.841.084,1.235.11s.723.038,1,.038a1.894,1.894,0,0,0,1.674-.706,4.663,4.663,0,0,0,.482-2.49,3.618,3.618,0,0,0-.718-2.384,2.456,2.456,0,0,0-2-.863,1.68,1.68,0,0,0-1.319.414,3.426,3.426,0,0,0-.355,1.953Zm0,6.7v.483c0,1.328.182,2.135.542,2.431a4.381,4.381,0,0,0,2.325.512l-.482,1.344h-6.93l.486-1.357h.1a1.116,1.116,0,0,0,1.082-.537,5.358,5.358,0,0,0,.292-2.2V29.256a8.223,8.223,0,0,0-.423-3.434,1.887,1.887,0,0,0-1.657-.731l.456-1.345c1.2,0,2.473-.021,3.826-.063s2.093-.064,2.237-.064a5.571,5.571,0,0,1,3.915,1.3,4.568,4.568,0,0,1,1.412,3.539,4.648,4.648,0,0,1-1.6,3.746,6.659,6.659,0,0,1-4.439,1.357q-.336,0-1.065-.051h-.076v1.624Z" transform="translate(-0.034 -0.077)" fill="#024594"/>
    <path id="Path_1823" data-name="Path 1823" d="M381.822,39.78V23.614h2.009V37.92h10.557V39.78H381.822m-20.059,0,7.923-16.165h1.67l8.013,16.165h-2.184l-2.194-4.349h-8.933l-2.139,4.349Zm5.213-6.238h7.118l-3.574-7.159ZM356.143,39.78V25.474h-6.808V23.615h15.626v1.859h-6.808V39.78Zm-9.717,0V23.524h2.039V39.78Zm-17.7,0V23.614h9.278a5.468,5.468,0,0,1,3.7,1.17,4.009,4.009,0,0,1,1.355,3.2,4.584,4.584,0,0,1-1.31,3.409,4.714,4.714,0,0,1-3.484,1.3H330.74V39.78Zm2.01-8.968h7.138a3.436,3.436,0,0,0,2.3-.675,2.445,2.445,0,0,0,.784-1.975,2.524,2.524,0,0,0-.784-1.979,3.15,3.15,0,0,0-2.2-.709H330.74Zm-21.37,6.534,1.17-1.735a13.929,13.929,0,0,0,3.569,2.029,10.376,10.376,0,0,0,3.669.7,6.335,6.335,0,0,0,3.639-.95,2.853,2.853,0,0,0,1.4-2.444,2.351,2.351,0,0,0-1-1.95,5.25,5.25,0,0,0-2.775-.915c-.284-.029-.695-.059-1.23-.085a18.2,18.2,0,0,1-5.438-.94,4.283,4.283,0,0,1-1.714-1.4,3.352,3.352,0,0,1-.585-1.929,3.822,3.822,0,0,1,1.745-3.214,7.538,7.538,0,0,1,4.524-1.259,12.376,12.376,0,0,1,3.994.665,13.682,13.682,0,0,1,3.744,1.975l-1.17,1.68a11.283,11.283,0,0,0-3.144-1.819,9.744,9.744,0,0,0-3.389-.61,5.8,5.8,0,0,0-3.019.715,2.072,2.072,0,0,0-1.184,1.785,1.629,1.629,0,0,0,.19.774,2.178,2.178,0,0,0,.585.665c.665.495,2.1.815,4.309.95,1.015.061,1.8.12,2.36.19a6.758,6.758,0,0,1,3.9,1.58,4.162,4.162,0,0,1,1.435,3.2,4.46,4.46,0,0,1-1.97,3.729,8.466,8.466,0,0,1-5.169,1.465,13.978,13.978,0,0,1-4.489-.7A13.49,13.49,0,0,1,309.371,37.346Zm-10.4,2.854a8.075,8.075,0,0,1-6-2.395,8.288,8.288,0,0,1-2.364-6.074,8.27,8.27,0,0,1,2.374-6.083,8.712,8.712,0,0,1,12.007.01,8.259,8.259,0,0,1,2.384,6.074A8.259,8.259,0,0,1,305,37.806,8.141,8.141,0,0,1,298.974,40.2Zm.005-1.89a6,6,0,0,0,4.513-1.859,6.541,6.541,0,0,0,1.785-4.719A6.574,6.574,0,0,0,303.5,27a6.4,6.4,0,0,0-9.032.01,6.559,6.559,0,0,0-1.785,4.719,6.542,6.542,0,0,0,1.785,4.719A6.008,6.008,0,0,0,298.979,38.31ZM273.42,39.78V23.614h2.04V30H285V23.614h2.009V39.78H285V31.862H275.46V39.78h-2.04Z" transform="translate(-93.318 0)" fill="#024594"/>
  </g>
</svg>
