<svg xmlns="http://www.w3.org/2000/svg" width="43.895" height="45.802" viewBox="0 0 43.895 45.802">
  <g id="neuro_care" transform="translate(-733.105 -753.122)">
    <path id="Path_5527" data-name="Path 5527" d="M58.138,308.366a1.919,1.919,0,0,0-.947.23,4.956,4.956,0,0,0-2.535,1.56c-.376.371-.7.694-.984.694-.361-.021-.692-.037-1-.037-2.086,0-3.176.73-4.166,2.783a1.762,1.762,0,0,1-.1.162H49a4.626,4.626,0,0,1,4.621,4.617.771.771,0,0,1-1.542,0A3.083,3.083,0,0,0,49,315.3H45.365a7.51,7.51,0,0,0-2.874,6.381,8.52,8.52,0,0,1-.853,4.158,7.384,7.384,0,0,0,0,7.764c.226.35.561.763.944,1.237.688.85,1.838,2.268,1.8,2.919a8.324,8.324,0,0,0,3.915,7.388c.42.218.492.437.65,1.1.019.071.037.15.056.229V345.5a5.4,5.4,0,0,1,5.389-5.391.771.771,0,0,1,0,1.541,3.856,3.856,0,0,0-3.851,3.85v3.434a5.441,5.441,0,0,0,1.192.579c.718.275,1.019.388,1.128,1.177.3,2.178,1.587,3.478,3.448,3.478,2.738,0,5.784-2.929,5.784-7.129V318.553a.765.765,0,0,1-.767.767,4.628,4.628,0,0,0-4.621,4.621,6.168,6.168,0,0,1-6.163,6.163.771.771,0,0,1,0-1.541,4.624,4.624,0,0,0,4.621-4.621,6.168,6.168,0,0,1,6.163-6.159.766.766,0,0,1,.767.771V311.62c0-1.537-2.355-3.253-3.952-3.253Zm-2.207,25.4a5.559,5.559,0,0,1,1.635-3.945.771.771,0,1,1,1.091,1.091,4.033,4.033,0,0,0,0,5.708.772.772,0,0,1,0,1.091,4.032,4.032,0,0,0,0,5.707.771.771,0,1,1-1.091,1.09,5.566,5.566,0,0,1-.473-7.343,5.541,5.541,0,0,1-1.161-3.4Zm-5.508,1.925a1.572,1.572,0,0,0,.932,2.02.771.771,0,0,1,.455.988.779.779,0,0,1-.722.5.718.718,0,0,1-.267-.049,3.121,3.121,0,0,1-1.846-4h0a1.574,1.574,0,0,0-.929-2.02.77.77,0,0,1,.533-1.444,3.12,3.12,0,0,1,1.844,4Zm1.4-11.8a3.12,3.12,0,0,1-2.925,2.035,3.053,3.053,0,0,1-1.073-.192,1.577,1.577,0,0,0-2.023.933.769.769,0,0,1-.721.5.858.858,0,0,1-.268-.049.769.769,0,0,1-.454-.988,3.121,3.121,0,0,1,4-1.844,1.577,1.577,0,0,0,2.023-.932.77.77,0,1,1,1.444.534Z" transform="translate(692.57 444.756)" fill="#024594" fill-rule="evenodd"/>
    <path id="Path_5528" data-name="Path 5528" d="M89.111,325.663a8.5,8.5,0,0,1-.854-4.158,7.517,7.517,0,0,0-2.872-6.381H81.749a2.314,2.314,0,0,0-2.313,2.308.769.769,0,1,1-1.537,0,3.855,3.855,0,0,1,3.85-3.85h.6a1.368,1.368,0,0,1-.1-.158c-.988-2.053-2.079-2.782-4.166-2.782-.3,0-.639.015-1.019.038-.215,0-.553-.362-.876-.708a4.16,4.16,0,0,0-2.541-1.568l-.392-.037c-2.488,0-4.594,1.41-4.594,3.08V346.87c0,4.2,3.049,7.125,5.787,7.129,1.857,0,3.147-1.3,3.448-3.479.109-.789.406-.9,1.128-1.176a5.259,5.259,0,0,0,1.188-.583v-3.433a3.856,3.856,0,0,0-3.85-3.851.769.769,0,1,1,0-1.538,5.4,5.4,0,0,1,5.392,5.389v.966c.018-.079.038-.157.056-.23.157-.658.229-.88.651-1.094a8.314,8.314,0,0,0,3.91-7.388,1.256,1.256,0,0,1,.1-.44l-2.3-2.666a4.591,4.591,0,0,0-3.964-2.237,6.168,6.168,0,0,1-6.159-6.163.769.769,0,0,1,1.537,0,4.628,4.628,0,0,0,4.621,4.621,6.111,6.111,0,0,1,5.246,2.929l1.85,2.139c.294-.4.609-.789.862-1.1.387-.477.718-.887.947-1.24a7.4,7.4,0,0,0,0-7.762ZM74.22,332.221a5.222,5.222,0,0,1,0,7.373,3.668,3.668,0,0,0,0,5.189.771.771,0,1,1-1.091,1.091,5.214,5.214,0,0,1,0-7.37,3.674,3.674,0,0,0,0-5.193.771.771,0,0,1,1.091-1.089Zm9.19-5.8a5.613,5.613,0,0,1-.9.079,5.226,5.226,0,0,1-5.132-4.312,3.67,3.67,0,0,0-4.249-2.982.769.769,0,1,1-.268-1.515,5.208,5.208,0,0,1,6.036,4.23,3.672,3.672,0,0,0,4.249,2.981.771.771,0,1,1,.267,1.519Z" transform="translate(686.79 444.756)" fill="#024594" fill-rule="evenodd"/>
  </g>
</svg>
