<svg xmlns="http://www.w3.org/2000/svg" width="52.905" height="34.007" viewBox="0 0 52.905 34.007">
  <path id="Opthalmology" d="M651.255,203.365A31.537,31.537,0,0,0,640.14,192.5a28.54,28.54,0,0,0-29.493,0,31.512,31.512,0,0,0-11.115,10.864,3.806,3.806,0,0,0,0,4.074A31.511,31.511,0,0,0,610.647,218.3a28.6,28.6,0,0,0,29.493.014,31.33,31.33,0,0,0,11.115-10.88,3.806,3.806,0,0,0,0-4.074Zm-32.2-8.075a8.641,8.641,0,0,1,6.332-2.641,1.416,1.416,0,1,1,0,2.832,6.151,6.151,0,0,0-6.141,6.141,1.417,1.417,0,1,1-2.835,0,8.642,8.642,0,0,1,2.642-6.332Zm19.16,19.752a24.742,24.742,0,0,1-25.655,0,30.447,30.447,0,0,1-9.845-9.641,29.037,29.037,0,0,1,11.248-10.421,12.911,12.911,0,0,0-1.8,6.642,13.227,13.227,0,1,0,26.454,0,12.92,12.92,0,0,0-1.8-6.642,29.038,29.038,0,0,1,11.25,10.42,30.453,30.453,0,0,1-9.847,9.642Z" transform="translate(-598.941 -188.395)" fill="#024594" fill-rule="evenodd"/>
</svg>
