<svg xmlns="http://www.w3.org/2000/svg" width="45.348" height="48.968" viewBox="0 0 45.348 48.968">
  <g id="Psychiatry" transform="translate(-2447.656 -7677.302)">
    <path id="Path_5509" data-name="Path 5509" d="M636.318,509.028a8.234,8.234,0,0,1-8.13,3.546,2.035,2.035,0,0,1-2.079-2.309q.051-22.152.012-44.3c0-1.238.352-1.922,1.764-2.018,4.823-.329,9,.663,11.732,5.12a2.956,2.956,0,0,0,1.439.886,11.247,11.247,0,0,1,6.82,12.414c-1.219,6.021-4.285,8.62-10.514,8.98a2.786,2.786,0,0,0-1.848.9c4.276.873,7.943-.428,11.219-3.012a6.607,6.607,0,0,1-1.783,9.362,2.233,2.233,0,0,0-1.033,2.744,4.659,4.659,0,0,1-2.275,5.2c-1.871,1.117-3.764,1.739-5.827.208a8.49,8.49,0,0,1-3.8-5.719c-.086-.61-.276-1.2-.441-1.9-2.419,1.718-.652,5.251,4.741,9.9Zm5.426-26.379c-.275-.46-.315-.611-.41-.67a1.756,1.756,0,0,0-.7-.32c-3.425-.263-6.11-1.469-6.9-5.225-.04-.192-.614-.483-.711-.413-.27.2-.619.584-.583.849a6.433,6.433,0,0,0,3.266,4.879A6.87,6.87,0,0,0,641.744,482.649Z" transform="translate(1844.948 7213.594)" fill="#024594" fill-rule="evenodd"/>
    <path id="Path_5510" data-name="Path 5510" d="M618.275,487.885c-4.4-2.9-9.108-2.94-13.97-1.09-3.593-6.417-.833-14.683,5.383-16.879a4.361,4.361,0,0,0,1.857-1.545c2.623-3.6,7.687-5.543,11.88-4.274.534.162,1.057,1.372,1.065,2.1.079,7.285.048,14.568.048,21.852V509.9c0,2.142-.473,2.607-2.633,2.707-3.2.149-6.19-.134-8.005-3.367-.217-.388-.992-.508-1.534-.662-4.124-1.183-5.894-3.881-5.507-8.194a2.434,2.434,0,0,0-.981-1.62c-2.79-2.294-3.778-5.333-2.45-8.547a4.345,4.345,0,0,1,2.024-2.147,12.9,12.9,0,0,1,10.662.176,15.369,15.369,0,0,0,1.966.554c.066-.307.131-.613.2-.92Zm-.876,15.127c.5-.779.879-1.1.93-1.477a7.692,7.692,0,0,0-5.626-7.981,4.107,4.107,0,0,0-1.526.257c.347.364.632.928,1.052,1.059,2.867.883,4.215,2.878,4.51,5.762a16.909,16.909,0,0,0,.66,2.38Zm-4.488-24.992a4.427,4.427,0,0,0,.418.927c1.553-.231,3.283-.173,4.59-.884,1.032-.562,1.567-2.067,2.245-3.2.076-.128-.357-.561-.554-.853-.274.221-.57.42-.82.665a19.57,19.57,0,0,1-2.8,2.7c-.757.488-1.868.419-3.079.645Z" transform="translate(1844.948 7213.594)" fill="#024594" fill-rule="evenodd"/>
  </g>
</svg>
