<svg xmlns="http://www.w3.org/2000/svg" width="49.328" height="53.831" viewBox="0 0 49.328 53.831">
  <path id="Pulmonary_Medicine" d="M434.29,512.588a1.779,1.779,0,0,1-1.052-.836c-5.377-20.311-1.6-33.79,10.276-40.206,1.853-1,4.575-1.761,6.372-.649,2.154,1.327,1.369,5.506,2.493,7.012.11.11.225.211.339.306V458.8h1.432v.7c.423.032.87.048,1.333.048.428,0,.846-.013,1.245-.04V458.8h1.431v19.515a4.812,4.812,0,0,0,.476-.41c1.122-1.506.335-5.685,2.49-7.012,1.8-1.112,4.519-.35,6.372.649,11.878,6.416,15.652,19.9,10.277,40.206a1.791,1.791,0,0,1-1.054.836,2.71,2.71,0,0,1-1.253-.061c-13.408-7.594-14.219-7.856-15.826-21.307a6.146,6.146,0,0,0-3.7-4.75h-.864a6.143,6.143,0,0,0-3.7,4.75c-1.608,13.451-2.42,13.713-15.827,21.307a2.715,2.715,0,0,1-1.254.061Zm4.739-17.8c.146-.27.294-.54.433-.813.344-.677.692-1.361,1.054-2.03.264-.483.523-.957.79-1.414,1.741,1.142,2.177,2.47,2.916,4.311a1.472,1.472,0,0,0,.014.162l.1-.006c-.006-.078-.012-.153-.019-.23a4.917,4.917,0,0,0-1.33-4.272,5.353,5.353,0,0,0-1.123-.884,10.318,10.318,0,0,1,5.585-4.69c.129-.043.257-.084.388-.12a8.774,8.774,0,0,0-.587,6.783c0,.071.009.141.015.211l.1-.006c0-.068-.009-.136-.012-.2a34.72,34.72,0,0,1,1.005-4.358,12.407,12.407,0,0,1,.543-1.354,7.867,7.867,0,0,1,.864-1.445c.749-.081,1.506-.1,2.272-.11a4.227,4.227,0,0,0,.978-.1,3.689,3.689,0,0,0,2.429-1.8,3.67,3.67,0,0,0,.657.831c1.37,1.269,2.312.985,4.025,1.083.326.019.666.048,1.011.089a6.7,6.7,0,0,1,.641,1.013,16.787,16.787,0,0,1,.708,1.622,30.994,30.994,0,0,1,1.062,4.536c0,.061-.008.124-.01.187l.1.006c0-.073.009-.146.013-.219.091-.331.184-.655.245-1a8.945,8.945,0,0,0-.573-5.267,5.226,5.226,0,0,0-.229-.5,7.949,7.949,0,0,1,1.68.663,11.583,11.583,0,0,1,1.6,1.029,11.824,11.824,0,0,1,2.68,3.1,5.722,5.722,0,0,0-.857.624,4.972,4.972,0,0,0-1.613,4.567c-.005.068-.011.137-.015.206l.1.006c0-.06.009-.12.015-.181a7.513,7.513,0,0,1,2.929-4.3c.836,1.453,1.556,2.989,2.283,4.316.065.156.131.309.2.462l.048-.019.043-.018c-.072-.166-.142-.334-.214-.5-.193-.6-.365-1.211-.556-1.812a30.286,30.286,0,0,0-1.571-4.126,14.232,14.232,0,0,0-1.082-1.84c1.726-.462,3.1-.034,4.869.451l.148.088.027-.04.024-.039c-.072-.044-.144-.088-.216-.13a5.663,5.663,0,0,0-1.292-.945,5.254,5.254,0,0,0-4.262-.284c-.047-.055-.1-.108-.144-.161-2.47-2.69-5.464-3.44-9.01-3.583a1.977,1.977,0,0,1-.482-.053c-1.091-.283-1.495-1.512-1.678-2.572v-2.455c-.4.027-.817.041-1.245.041-.463,0-.91-.016-1.333-.047v2.461a4.277,4.277,0,0,1-.928,2.174c-.421.488-1.171.443-1.732.47-.3.014-.613.028-.915.061a13.242,13.242,0,0,0-4.428,1.154,10.275,10.275,0,0,0-3.3,2.508,5.1,5.1,0,0,0-1.178-.279,5.344,5.344,0,0,0-4.407,1.526c-.063.037-.125.075-.188.114l.053.079.161-.1a8.413,8.413,0,0,1,4.85-.434,21.877,21.877,0,0,0-2.631,5.9c-.21.643-.415,1.3-.609,1.948-.06.14-.119.282-.18.421l.092.037q.111-.254.218-.512Zm17.7-18.752V474.5c-.4.027-.817.041-1.245.041-.463,0-.91-.017-1.333-.048v1.529c.423.031.87.048,1.333.048.428,0,.846-.014,1.245-.041Zm0-2.753v-1.53c-.4.028-.817.042-1.245.042-.463,0-.91-.016-1.333-.047v1.529c.423.031.87.047,1.333.047C455.912,473.319,456.33,473.3,456.729,473.278Zm0-2.752V469c-.4.027-.817.04-1.245.04-.463,0-.91-.016-1.333-.047v1.529c.423.031.87.048,1.333.048.428,0,.846-.014,1.245-.041Zm0-2.753v-1.529c-.4.027-.817.041-1.245.041-.463,0-.91-.016-1.333-.047v1.529c.423.031.87.047,1.333.047C455.912,467.814,456.33,467.8,456.729,467.773Zm0-2.752v-1.529c-.4.026-.817.04-1.245.04-.463,0-.91-.016-1.333-.047v1.529c.423.031.87.048,1.333.048.428,0,.846-.014,1.245-.041Zm0-2.753v-1.529c-.4.027-.817.041-1.245.041-.463,0-.91-.016-1.333-.047v1.529c.423.031.87.047,1.333.047.427,0,.845-.009,1.244-.041Z" transform="translate(-430.842 -458.8)" fill="#024594" fill-rule="evenodd"/>
</svg>
