<svg xmlns="http://www.w3.org/2000/svg" width="58.377" height="53.848" viewBox="0 0 58.377 53.848">
  <g id="urology" transform="translate(-1124.552 -1043.957)">
    <path id="Path_5529" data-name="Path 5529" d="M778.138,184.64c.56,4.942-3.823,5.129-3.823,5.129a6.414,6.414,0,0,0,3.357-5.6.917.917,0,0,1-.28-.746.845.845,0,0,1,.093-.467,4.119,4.119,0,0,1-5.781-1.585,6.665,6.665,0,0,0,6.061.84,3.834,3.834,0,0,1,.746-1.213,9.553,9.553,0,0,0-.466-9.511s-2.984-3.637-7.274-2.8c-3.637.746-5.036,4.29-5.688,7.553-.84,4.2-1.119,8.766.373,12.869s5.875,8.206,10.444,5.688a7.487,7.487,0,0,0,3.264-8.112,6.081,6.081,0,0,0-1.026-2.045Z" transform="translate(360.158 875.395)" fill="#024594" fill-rule="evenodd"/>
    <path id="Path_5530" data-name="Path 5530" d="M822.153,176.248c-.653-3.265-1.958-6.9-5.688-7.553-4.29-.841-7.274,2.8-7.274,2.8a9.508,9.508,0,0,0-.466,9.511,14.077,14.077,0,0,1,.746,1.213,6.667,6.667,0,0,0,6.061-.839,4.2,4.2,0,0,1-5.782,1.584c0,.187.094.28.094.466a.8.8,0,0,1-.28.746,6.832,6.832,0,0,0,3.357,5.6s-4.383-.281-3.823-5.129a5.692,5.692,0,0,0-1.026,2.143,7.631,7.631,0,0,0,3.264,8.114c4.569,2.518,8.952-1.586,10.444-5.689C823.179,185.013,822.9,180.35,822.153,176.248Z" transform="translate(360.158 875.395)" fill="#024594" fill-rule="evenodd"/>
    <path id="Path_5531" data-name="Path 5531" d="M807.7,182.962a1.4,1.4,0,0,0-1.4-1.492,6.172,6.172,0,0,0-5.036,1.865c-3.17,3.449-2.144,10.538-1.025,18.091.839,5.6,1.678,11.935,0,13.987a1.147,1.147,0,0,1-.746.467c0-.093-.093-.188-.187-.28s-.093-.187-.186-.28-.093-.187-.187-.279-.186-.187-.28-.187c-.093-.093-.186-.093-.279-.187s-.187-.093-.28-.186-.187-.093-.373-.093c-.093,0-.28-.093-.373-.093s-.28-.094-.373-.094a2.589,2.589,0,0,0-.839-.093h-5.409c-.28,0-.559.093-.839.093-.093,0-.28.094-.373.094s-.28.093-.373.093-.187.093-.373.093c-.093.093-.187.093-.28.186s-.186.094-.28.187-.186.093-.279.187-.187.186-.187.279c-.093.093-.093.187-.186.28s-.094.187-.187.28c-.373-.093-.559-.373-.746-.467-1.678-1.959-.746-8.392,0-13.987,1.119-7.553,2.145-14.642-1.026-18.091a6.17,6.17,0,0,0-5.035-1.865,1.446,1.446,0,1,0,.093,2.89,3.054,3.054,0,0,1,2.8.933c2.238,2.425,1.213,9.512.28,15.76-1.026,6.806-1.865,13.242.653,16.319a4.339,4.339,0,0,0,3.077,1.585,6.984,6.984,0,0,0,.653,1.119c.187.186.373.466.56.653a4.113,4.113,0,0,0,.652.56,1.3,1.3,0,0,0,.373.279,2.784,2.784,0,0,0,.746.373h.094c.093.094.279.094.373.187a.561.561,0,0,0,.373.093h.093c.093,0,.28.093.373.093h.093c.093,0,.28.093.373.093h2.238a.562.562,0,0,0,.373-.093h.093c.094,0,.28-.093.373-.093h.094c.093,0,.279-.093.373-.093.093-.093.279-.093.373-.187h.093c.28-.093.466-.279.746-.373.093-.093.28-.186.373-.279.187-.188.466-.373.653-.56s.373-.467.559-.653a6.9,6.9,0,0,0,.653-1.119,4.92,4.92,0,0,0,3.077-1.585c2.518-2.984,1.679-9.418.653-16.319-.932-6.248-1.865-13.242.28-15.76a3.054,3.054,0,0,1,2.8-.933,1.515,1.515,0,0,0,1.674-1.4Z" transform="translate(360.158 875.395)" fill="#024594" fill-rule="evenodd"/>
  </g>
</svg>
